<svg width="24" height="23" viewBox="0 0 24 23" fill="none" xmlns="http://www.w3.org/2000/svg">
<path fill-rule="evenodd" clip-rule="evenodd" d="M12.3465 0.710648C11.9435 0.429784 11.3791 0.429784 10.9761 0.710648L0.930892 7.71065C0.659018 7.9001 0.5 8.19141 0.5 8.5V19.5C0.5 20.2957 0.852775 21.0587 1.48072 21.6213C2.10866 22.1839 2.96034 22.5 3.84839 22.5H19.4742C20.3622 22.5 21.2139 22.1839 21.8419 21.6213C22.4698 21.0587 22.8226 20.2957 22.8226 19.5V8.5C22.8226 8.19141 22.6636 7.9001 22.3917 7.71065L12.3465 0.710648ZM16.1258 20.5H19.4742C19.7702 20.5 20.0541 20.3946 20.2634 20.2071C20.4727 20.0196 20.5903 19.7652 20.5903 19.5V8.98908L11.6613 2.76686L2.73226 8.98908V19.5C2.73226 19.7652 2.84985 20.0196 3.05916 20.2071C3.26848 20.3946 3.55237 20.5 3.84839 20.5H7.19677V11.5C7.19677 10.9477 7.69648 10.5 8.3129 10.5H15.0097C15.6261 10.5 16.1258 10.9477 16.1258 11.5V20.5ZM9.42903 20.5V12.5H13.8935V20.5H9.42903Z" fill="black" stroke="black" stroke-linecap="round" stroke-linejoin="round"/>
</svg>
