<svg width="60" height="86" viewBox="0 0 60 86" fill="none" xmlns="http://www.w3.org/2000/svg">
<path d="M30 40.7143C27.1584 40.7143 24.4332 39.5855 22.4239 37.5761C20.4145 35.5668 19.2857 32.8416 19.2857 30C19.2857 27.1584 20.4145 24.4332 22.4239 22.4239C24.4332 20.4145 27.1584 19.2857 30 19.2857C32.8416 19.2857 35.5668 20.4145 37.5761 22.4239C39.5855 24.4332 40.7143 27.1584 40.7143 30C40.7143 31.407 40.4372 32.8003 39.8987 34.1002C39.3603 35.4001 38.5711 36.5812 37.5761 37.5761C36.5812 38.5711 35.4001 39.3603 34.1002 39.8987C32.8003 40.4372 31.407 40.7143 30 40.7143ZM30 0C22.0435 0 14.4129 3.16071 8.7868 8.7868C3.1607 14.4129 0 22.0435 0 30C0 52.5 30 85.7143 30 85.7143C30 85.7143 60 52.5 60 30C60 22.0435 56.8393 14.4129 51.2132 8.7868C45.5871 3.16071 37.9565 0 30 0Z" fill="black"/>
</svg>
